<?xml version="1.0" encoding="iso-8859-1"?>
<!-- Generator: Adobe Illustrator 18.0.0, SVG Export Plug-In . SVG Version: 6.00 Build 0)  -->
<!DOCTYPE svg PUBLIC "-//W3C//DTD SVG 1.1//EN" "http://www.w3.org/Graphics/SVG/1.1/DTD/svg11.dtd">
<svg version="1.1" id="Capa_1" xmlns="http://www.w3.org/2000/svg" xmlns:xlink="http://www.w3.org/1999/xlink" x="0px" y="0px"
	 viewBox="0 0 460 460" style="enable-background:new 0 0 460 460;" xml:space="preserve">
<g id="XMLID_1369_">
	<g id="XMLID_1770_">
		<polygon id="XMLID_2312_" style="fill:#AE9676;" points="460,211.216 230,9.912 0.805,210.512 228.691,325.922 460,212.055 		"/>
	</g>
	<g id="XMLID_842_">
		<rect id="XMLID_2311_" x="32.575" y="53.003" style="fill:#F86E51;" width="394.85" height="298.53"/>
	</g>
	<g id="XMLID_925_">
		<path id="XMLID_3037_" style="fill:#FFFFFF;" d="M230.008,146.027c-0.174,0-0.35-0.006-0.526-0.018
			c-4.265-0.284-7.499-3.952-7.257-8.211c0.016-0.442,0.182-7.414-5.285-13.117c-5.261-5.487-14.151-8.269-26.424-8.269
			c-4.302,0-7.788-3.487-7.788-7.788s3.486-7.788,7.788-7.788c16.886,0,29.656,4.499,37.957,13.372
			c9.92,10.604,9.391,23.151,9.298,24.547C237.496,142.871,234.072,146.027,230.008,146.027z"/>
	</g>
	<g id="XMLID_928_">
		<path id="XMLID_3036_" style="fill:#FFFFFF;" d="M190.515,96.67c-4.302,0-7.788-3.487-7.788-7.788v-9.871
			c0-4.301,3.486-7.788,7.788-7.788s7.788,3.487,7.788,7.788v9.871C198.303,93.183,194.817,96.67,190.515,96.67z"/>
	</g>
	<g id="XMLID_932_">
		<path id="XMLID_3035_" style="fill:#FFFFFF;" d="M190.515,146.026c-4.302,0-7.788-3.487-7.788-7.788v-9.871
			c0-4.301,3.486-7.788,7.788-7.788s7.788,3.487,7.788,7.788v9.871C198.303,142.539,194.817,146.026,190.515,146.026z"/>
	</g>
	<g id="XMLID_896_">
		<path id="XMLID_3034_" style="fill:#FFFFFF;" d="M160.901,116.413h-9.872c-4.302,0-7.788-3.487-7.788-7.788
			s3.486-7.788,7.788-7.788h9.872c4.302,0,7.788,3.487,7.788,7.788S165.203,116.413,160.901,116.413z"/>
	</g>
	<g id="XMLID_933_">
		<path id="XMLID_3033_" style="fill:#FFFFFF;" d="M162.646,141.748c-2.478,0-4.914-1.18-6.424-3.376
			c-2.438-3.545-1.539-8.393,2.005-10.83l8.134-5.592c3.543-2.437,8.392-1.539,10.829,2.005c2.438,3.545,1.539,8.393-2.005,10.83
			l-8.134,5.592C165.703,141.304,164.167,141.748,162.646,141.748z"/>
	</g>
	<g id="XMLID_934_">
		<path id="XMLID_3032_" style="fill:#FFFFFF;" d="M170.765,96.67c-1.521,0-3.057-0.444-4.405-1.371l-8.134-5.592
			c-3.544-2.437-4.443-7.285-2.006-10.829c2.436-3.545,7.286-4.442,10.83-2.005l8.134,5.592c3.544,2.437,4.443,7.285,2.006,10.829
			C175.68,95.491,173.243,96.67,170.765,96.67z"/>
	</g>
	<g id="XMLID_841_">
		<path id="XMLID_2310_" style="fill:#FFCF6D;" d="M0,211.216v160.436c0,21.686,8.802,41.315,23.027,55.513l205.664-101.243
			L0.805,210.512L0,211.216z"/>
	</g>
	<g id="XMLID_1769_">
		<path id="XMLID_2309_" style="fill:#F9B65F;" d="M23.027,427.166c14.19,14.163,33.776,22.922,55.409,22.922h303.129
			c43.319,0,78.435-35.117,78.435-78.435V212.055L23.027,427.166z"/>
	</g>
	<path id="XMLID_2411_" style="fill:#D0D5D9;" d="M427.291,228.157V344.99c0,43.319-35.117,78.435-78.435,78.435H45.727
		c-4.401,0-8.711-0.381-12.915-1.077l-9.785,4.817c14.19,14.163,33.776,22.922,55.409,22.922h303.129
		c43.319,0,78.435-35.117,78.435-78.435V212.055L427.291,228.157z"/>
	<g id="XMLID_931_">
		<path id="XMLID_2306_" style="fill:#3C5768;" d="M247.499,152.579v-14.34h-34.998v14.34
			c-23.664,7.433-40.831,29.538-40.831,55.656c0,32.215,26.115,58.33,58.33,58.33s58.33-26.115,58.33-58.33
			C288.33,182.117,271.163,160.012,247.499,152.579z"/>
	</g>
</g>
<g>
</g>
<g>
</g>
<g>
</g>
<g>
</g>
<g>
</g>
<g>
</g>
<g>
</g>
<g>
</g>
<g>
</g>
<g>
</g>
<g>
</g>
<g>
</g>
<g>
</g>
<g>
</g>
<g>
</g>
</svg>
