<?xml version="1.0" encoding="iso-8859-1"?>
<!-- Generator: Adobe Illustrator 19.0.0, SVG Export Plug-In . SVG Version: 6.00 Build 0)  -->
<svg version="1.1" id="Layer_1" xmlns="http://www.w3.org/2000/svg" xmlns:xlink="http://www.w3.org/1999/xlink" x="0px" y="0px"
	 viewBox="0 0 512 512" style="enable-background:new 0 0 512 512;" xml:space="preserve">
<polygon style="fill:#C1B8B5;" points="478.242,489.495 512,489.495 512,90.022 455.736,56.264 "/>
<polygon style="fill:#D8D1D0;" points="0,90.022 0,489.495 478.242,489.495 478.242,56.264 "/>
<polygon style="fill:#554F4E;" points="478.242,22.505 455.736,56.264 478.242,90.022 512,90.022 512,22.505 "/>
<rect y="22.505" style="fill:#7F7774;" width="478.242" height="67.516"/>
<polygon style="fill:#D1FDF2;" points="444.484,123.78 421.978,279.154 444.484,455.736 478.242,455.736 478.242,123.78 "/>
<rect x="33.758" y="123.78" style="fill:#FFFFFF;" width="410.725" height="331.956"/>
<polygon style="fill:#FFF3D4;" points="323.517,388.22 78.769,388.22 78.769,346.022 101.275,289.758 78.769,233.495 
	78.769,191.297 323.517,191.297 "/>
<polygon style="fill:#F5AC51;" points="78.769,289.758 78.769,346.022 177.231,346.022 199.736,278.505 "/>
<polygon style="fill:#FFD159;" points="78.769,233.495 78.769,289.758 199.736,289.758 177.231,233.495 "/>
<polygon style="fill:#F1866D;" points="177.231,289.758 177.231,346.022 233.495,317.89 256,278.505 "/>
<polygon style="fill:#FFAB97;" points="233.495,261.626 177.231,233.495 177.231,289.758 256,289.758 "/>
<g>
	<polygon style="fill:#554F4E;" points="233.495,261.626 233.495,317.89 289.758,289.758 	"/>
	<path style="fill:#554F4E;" d="M433.231,199.736h-64.703c-4.662,0-8.44-3.778-8.44-8.44s3.778-8.44,8.44-8.44h64.703
		c4.662,0,8.44,3.778,8.44,8.44S437.893,199.736,433.231,199.736z"/>
	<path style="fill:#554F4E;" d="M433.231,244.747h-64.703c-4.662,0-8.44-3.778-8.44-8.44s3.778-8.44,8.44-8.44h64.703
		c4.662,0,8.44,3.778,8.44,8.44S437.893,244.747,433.231,244.747z"/>
	<path style="fill:#554F4E;" d="M433.231,289.758h-64.703c-4.662,0-8.44-3.778-8.44-8.44s3.778-8.44,8.44-8.44h64.703
		c4.662,0,8.44,3.778,8.44,8.44S437.893,289.758,433.231,289.758z"/>
</g>
<g>
	<circle style="fill:#F5AC51;" cx="436.044" cy="56.264" r="8.44"/>
	<circle style="fill:#F5AC51;" cx="402.286" cy="56.264" r="8.44"/>
	<circle style="fill:#F5AC51;" cx="469.802" cy="56.264" r="8.44"/>
</g>
<g>
</g>
<g>
</g>
<g>
</g>
<g>
</g>
<g>
</g>
<g>
</g>
<g>
</g>
<g>
</g>
<g>
</g>
<g>
</g>
<g>
</g>
<g>
</g>
<g>
</g>
<g>
</g>
<g>
</g>
</svg>
