<?xml version="1.0" encoding="iso-8859-1"?>
<!-- Generator: Adobe Illustrator 19.0.0, SVG Export Plug-In . SVG Version: 6.00 Build 0)  -->
<svg version="1.1" id="Layer_1" xmlns="http://www.w3.org/2000/svg" xmlns:xlink="http://www.w3.org/1999/xlink" x="0px" y="0px"
	 viewBox="0 0 505 505" style="enable-background:new 0 0 505 505;" xml:space="preserve">
<circle style="fill:#54C0EB;" cx="252.5" cy="252.5" r="252.5"/>
<path style="fill:#324A5E;" d="M395.3,113.6H109.7c-10.8,0-19.5,8.7-19.5,19.5V372c0,10.8,8.7,19.5,19.5,19.5h285.6
	c10.8,0,19.5-8.7,19.5-19.5V133C414.8,122.3,406.1,113.6,395.3,113.6z"/>
<g>
	<path style="fill:#FFFFFF;" d="M389.3,312H115.7c-0.5,0-0.9-0.4-0.9-0.9V193.9c0-0.5,0.4-0.9,0.9-0.9h273.6c0.5,0,0.9,0.4,0.9,0.9
		v117.3C390.2,311.6,389.8,312,389.3,312z"/>
	<path style="fill:#FFFFFF;" d="M152.7,171h-36.9c-0.5,0-0.9-0.4-0.9-0.9v-31.9c0-0.5,0.4-0.9,0.9-0.9h36.9c0.5,0,0.9,0.4,0.9,0.9
		v31.9C153.5,170.6,153.1,171,152.7,171z"/>
	<path style="fill:#FFFFFF;" d="M231.5,171h-36.9c-0.5,0-0.9-0.4-0.9-0.9v-31.9c0-0.5,0.4-0.9,0.9-0.9h36.9c0.5,0,0.9,0.4,0.9,0.9
		v31.9C232.4,170.6,232,171,231.5,171z"/>
	<path style="fill:#FFFFFF;" d="M310.4,171h-36.9c-0.5,0-0.9-0.4-0.9-0.9v-31.9c0-0.5,0.4-0.9,0.9-0.9h36.9c0.5,0,0.9,0.4,0.9,0.9
		v31.9C311.3,170.6,310.9,171,310.4,171z"/>
	<path style="fill:#FFFFFF;" d="M389.3,171h-36.9c-0.5,0-0.9-0.4-0.9-0.9v-31.9c0-0.5,0.4-0.9,0.9-0.9h36.9c0.5,0,0.9,0.4,0.9,0.9
		v31.9C390.2,170.6,389.8,171,389.3,171z"/>
	<path style="fill:#FFFFFF;" d="M152.7,367.6h-36.9c-0.5,0-0.9-0.4-0.9-0.9v-31.9c0-0.5,0.4-0.9,0.9-0.9h36.9c0.5,0,0.9,0.4,0.9,0.9
		v31.9C153.5,367.3,153.1,367.6,152.7,367.6z"/>
	<path style="fill:#FFFFFF;" d="M231.5,367.6h-36.9c-0.5,0-0.9-0.4-0.9-0.9v-31.9c0-0.5,0.4-0.9,0.9-0.9h36.9c0.5,0,0.9,0.4,0.9,0.9
		v31.9C232.4,367.3,232,367.6,231.5,367.6z"/>
	<path style="fill:#FFFFFF;" d="M310.4,367.6h-36.9c-0.5,0-0.9-0.4-0.9-0.9v-31.9c0-0.5,0.4-0.9,0.9-0.9h36.9c0.5,0,0.9,0.4,0.9,0.9
		v31.9C311.3,367.3,310.9,367.6,310.4,367.6z"/>
	<path style="fill:#FFFFFF;" d="M389.3,367.6h-36.9c-0.5,0-0.9-0.4-0.9-0.9v-31.9c0-0.5,0.4-0.9,0.9-0.9h36.9c0.5,0,0.9,0.4,0.9,0.9
		v31.9C390.2,367.3,389.8,367.6,389.3,367.6z"/>
</g>
<path style="fill:#FF7058;" d="M228.1,225.3v54.4c0,6.6,7.4,10.5,12.8,6.8l39.8-27.2c4.8-3.3,4.8-10.3,0-13.6l-39.8-27.2
	C235.5,214.8,228.1,218.7,228.1,225.3z"/>
<g>
</g>
<g>
</g>
<g>
</g>
<g>
</g>
<g>
</g>
<g>
</g>
<g>
</g>
<g>
</g>
<g>
</g>
<g>
</g>
<g>
</g>
<g>
</g>
<g>
</g>
<g>
</g>
<g>
</g>
</svg>
